<?xml version="1.0" standalone="no"?><!DOCTYPE svg PUBLIC "-//W3C//DTD SVG 1.1//EN" "http://www.w3.org/Graphics/SVG/1.1/DTD/svg11.dtd"><svg t="1690011414912" class="icon" viewBox="0 0 1024 1024" version="1.1" xmlns="http://www.w3.org/2000/svg" p-id="3153" xmlns:xlink="http://www.w3.org/1999/xlink" width="200" height="200"><path d="M1024 194.56a420.352 420.352 0 0 1-120.832 33.28 210.432 210.432 0 0 0 92.16-116.224 422.4 422.4 0 0 1-133.632 51.2A209.92 209.92 0 0 0 499.2 307.2a211.968 211.968 0 0 0 5.632 47.616 596.48 596.48 0 0 1-433.152-220.16 208.896 208.896 0 0 0-28.672 105.472A204.8 204.8 0 0 0 132.096 414.72C97.28 413.696 32.256 404.48 32.256 388.608v2.56a214.528 214.528 0 0 0 173.056 204.8 193.024 193.024 0 0 1-51.2 7.168 199.68 199.68 0 0 1-38.4-3.584 210.944 210.944 0 0 0 196.608 145.92A420.864 420.864 0 0 1 51.2 836.608a438.784 438.784 0 0 1-51.2-3.072 594.944 594.944 0 0 0 322.048 94.208A593.408 593.408 0 0 0 921.6 330.24v-27.136a427.008 427.008 0 0 0 102.4-108.544z m0 0" fill="" p-id="3154"></path></svg>